<?xml version="1.0" encoding="utf-8"?>
<!-- Generator: Adobe Illustrator 17.1.0, SVG Export Plug-In . SVG Version: 6.00 Build 0)  -->
<!DOCTYPE svg PUBLIC "-//W3C//DTD SVG 1.1//EN" "http://www.w3.org/Graphics/SVG/1.1/DTD/svg11.dtd">
<svg version="1.1" id="Layer_1" xmlns="http://www.w3.org/2000/svg" xmlns:xlink="http://www.w3.org/1999/xlink" width="100px" x="0px" y="0px"
	 viewBox="2.4 51.5 97.6 95.1" enable-background="new 2.4 51.5 97.6 95.1" xml:space="preserve">
<g>
	<path fill="#F5F5F5" d="M2.4,69.2c0-0.6,0.4-1,1-1h59c0.5,0,1,0.5,1,1V144c0,0.5-0.5,1-1,1h-59c-0.5,0-1-0.5-1-1V69.2z"/>
</g>
<g>
	<path fill="#FFFFFF" d="M18.1,53.5c0-0.5,0.5-1,1-1h59c0.6,0,1,0.5,1,1v74.8c0,0.5-0.4,1-1,1h-59c-0.5,0-1-0.5-1-1V53.5z"/>
	<path fill="none" stroke="#000000" stroke-width="2" stroke-miterlimit="10" d="M18.1,53.5c0-0.5,0.5-1,1-1h59c0.6,0,1,0.5,1,1
		v74.8c0,0.5-0.4,1-1,1h-59c-0.5,0-1-0.5-1-1V53.5z"/>
</g>
<rect x="18.1" y="64.3" fill="#FFFFFF" stroke="#000000" stroke-width="2" stroke-miterlimit="10" width="61" height="17.1"/>
<rect x="25" y="70.2" fill="#EDEDED" width="47.2" height="5.9"/>
<g>
	<rect x="25" y="87.9" fill="#3F4D9C" width="47.2" height="5.9"/>
</g>
<rect x="25" y="97.7" fill="#EDEDED" width="47.2" height="5.9"/>
<rect x="25" y="107.6" fill="#EDEDED" width="47.2" height="5.9"/>
<rect x="25" y="117.4" fill="#EDEDED" width="47.2" height="5.9"/>
<polygon fill="#9D9D9D" stroke="#9D9D9D" stroke-width="0.1" stroke-miterlimit="10" points="90.2,138.1 90.6,146.6 84.4,142.4 "/>
<path fill="none" stroke="#9D9D9D" stroke-miterlimit="10" d="M88.6,120.4c6.1,0,11,4.9,11,11s-4.9,11-11,11"/>
</svg>
