<?xml version="1.0" encoding="utf-8"?>
<!-- Generator: Adobe Illustrator 17.1.0, SVG Export Plug-In . SVG Version: 6.00 Build 0)  -->
<!DOCTYPE svg PUBLIC "-//W3C//DTD SVG 1.1//EN" "http://www.w3.org/Graphics/SVG/1.1/DTD/svg11.dtd">
<svg version="1.1" id="Layer_1" xmlns="http://www.w3.org/2000/svg" xmlns:xlink="http://www.w3.org/1999/xlink" width="100px" x="0px" y="0px"
	 viewBox="-0.2 66.9 100.5 70.1" enable-background="new -0.2 66.9 100.5 70.1" xml:space="preserve">
<g>
	<g>
		<path fill="#FFFFFF" d="M0.8,68.9c0-0.6,0.4-1,1-1h62.6c0.6,0,1,0.4,1,1V118c0,0.6-0.4,1-1,1H1.8c-0.6,0-1-0.4-1-1V68.9z"/>
		<path fill="none" stroke="#000000" stroke-width="2" stroke-miterlimit="10" d="M0.8,68.9c0-0.6,0.4-1,1-1h62.6c0.6,0,1,0.4,1,1
			V118c0,0.6-0.4,1-1,1H1.8c-0.6,0-1-0.4-1-1V68.9z"/>
	</g>
	<g>
		<path fill="#FFFFFF" d="M0.8,68.9c0-0.6,0.5-1,1-1h62.3c0.6,0,1,0.4,1,1v9.6c0,0.6-0.5,1-1,1H1.8c-0.6,0-1-0.5-1-1V68.9z"/>
		<path fill="none" stroke="#000000" stroke-width="2" stroke-miterlimit="10" d="M0.8,68.9c0-0.6,0.5-1,1-1h62.3c0.6,0,1,0.4,1,1
			v9.6c0,0.6-0.5,1-1,1H1.8c-0.6,0-1-0.5-1-1V68.9z"/>
	</g>
	<circle fill="#FFFFFF" stroke="#000000" stroke-width="2" stroke-miterlimit="10" cx="34" cy="98.9" r="14.6"/>
	<g>
		<ellipse cx="33.9" cy="97.9" rx="8.5" ry="6.6"/>
		<polygon points="26.3,96.3 26.3,89.9 31.1,92.7 		"/>
		<polygon points="41.8,96.3 41.8,89.9 37,92.7 		"/>
		<g>
			<path d="M37.9,112.8c0,0.3-1,0.7-1.9,0.8s-2.8,0.2-3.8,0c-1.1-0.2-1.9-0.6-1.9-0.9s0-2.7,0-5.2c0-2.5,1.8-4.6,3.9-4.6
				s3.9,2.1,3.9,4.7C37.9,110.2,37.9,112.5,37.9,112.8z"/>
		</g>
		<path fill="none" stroke="#000000" stroke-width="1.5" stroke-linecap="round" stroke-miterlimit="10" d="M30.8,107.7
			c0,0-3.7,1.3-6.2-4"/>
	</g>
	<rect x="56.6" y="71.4" fill="#3F4D9C" width="4.6" height="4.6"/>
	<g>
		<rect x="54.3" y="92" fill="#FFFFFF" width="44.4" height="44.4"/>
		<path fill="#3F4D9C" stroke="#3F4D9C" stroke-width="1.2" stroke-miterlimit="10" d="M99.6,136.4H54.3V91h45.3V136.4z M55.3,135.4
			h43.4V92H55.3C55.3,92,55.3,135.4,55.3,135.4z"/>
	</g>
	<g>
		<path fill="#3F4D9C" d="M85.3,104.8c-0.7,0.9-1.5,1.9-2.5,3.2c-1,1.4-2,2.8-3,4.3c-1.1,1.5-2,3.2-3.1,4.8
			c-1.1,1.6-1.9,3.3-2.7,4.7h11.7v4.9H67.6v-3.5c0.6-1.3,1.4-2.7,2.3-4.2c1-1.5,1.8-3.2,2.8-4.7c1-1.5,1.9-3.1,3-4.6
			c1-1.4,1.9-2.8,2.8-4.1H68.2v-4.9h17.2V104.8z"/>
	</g>
</g>
<polygon fill="#9D9D9D" stroke="#9D9D9D" stroke-width="5.207891e-02" stroke-miterlimit="10" points="75.1,83.7 79.6,83.6
	77.3,86.7 "/>
<path fill="none" stroke="#9D9D9D" stroke-width="0.75" stroke-miterlimit="10" d="M71.8,78.6c3.2,0.1,5.6,2.8,5.5,5.9"/>
<polygon fill="#9D9D9D" stroke="#9D9D9D" stroke-width="5.207891e-02" stroke-miterlimit="10" points="45.6,126.7 41.2,126.7
	43.5,123.6 "/>
<path fill="none" stroke="#9D9D9D" stroke-width="0.75" stroke-miterlimit="10" d="M48.9,131.7c-3.2-0.1-5.6-2.8-5.5-5.9"/>
<path fill="none" stroke="#9D9D9D" stroke-miterlimit="10" d="M72.4,77.1"/>
</svg>
