<?xml version="1.0" encoding="utf-8"?>
<!-- Generator: Adobe Illustrator 17.1.0, SVG Export Plug-In . SVG Version: 6.00 Build 0)  -->
<!DOCTYPE svg PUBLIC "-//W3C//DTD SVG 1.1//EN" "http://www.w3.org/Graphics/SVG/1.1/DTD/svg11.dtd">
<svg version="1.1" id="Layer_1" xmlns="http://www.w3.org/2000/svg" xmlns:xlink="http://www.w3.org/1999/xlink" width="100px" x="0px" y="0px"
	 viewBox="0.2 63.7 100.2 73" enable-background="new 0.2 63.7 100.2 73" xml:space="preserve">
<g>
	<path fill="none" stroke="#1D2329" stroke-width="2" stroke-miterlimit="10" d="M1.1,65.5c0-0.5,0.4-1,1-1h96.2c0.6,0,1,0.5,1,1
		v69.2c0,0.6-0.4,1-1,1H2.1c-0.6,0-1-0.4-1-1V65.5z"/>
</g>
<rect x="1.1" y="71.8" fill="none" stroke="#1D2329" stroke-width="2" stroke-miterlimit="10" width="98.2" height="10.8"/>
<rect x="7.4" y="75.2" fill="#EDEDED" width="12.2" height="4.1"/>
<rect x="22.3" y="75.2" fill="#EDEDED" width="12.2" height="4.1"/>
<rect x="37.2" y="75.2" fill="#EDEDED" width="12.2" height="4.1"/>
<rect x="80.4" y="75.2" fill="#3F4D9C" width="12.2" height="4.1"/>
<rect x="7.4" y="89" fill="#EDEDED" width="24.3" height="40.1"/>
<rect x="37.2" y="89" fill="#EDEDED" width="25.7" height="40.1"/>
<rect x="68.2" y="89" fill="#EDEDED" width="24.3" height="40.1"/>
</svg>
